<?xml version="1.0" ?><svg viewBox="0 0 32 32" xmlns="http://www.w3.org/2000/svg"><title/><g data-name="filled line" id="filled_line" style="fill:white"><path d="M16,2.5A11.494,11.494,0,0,0,8.564,22.7637,1.0028,1.0028,0,0,0,9.21,23H22.79a1.0015,1.0015,0,0,0,.6455-.2363A11.4937,11.4937,0,0,0,16,2.5Z" style="fill:transparent"/><path d="M27.9482,24.6836l-1-3A.9988.9988,0,0,0,26,21H6a1,1,0,0,0-.9487.6836l-1,3A1.0005,1.0005,0,0,0,5,26H27a.9994.9994,0,0,0,.9482-1.3164Z" style="fill:transparent"/><rect height="6" rx="1" ry="1" style="fill:transparent" width="28" x="2" y="24"/><path d="M29,24H27.72l-.7722-2.3164A.9988.9988,0,0,0,26,21h-.8835A11.5,11.5,0,1,0,6.8831,21H6a1,1,0,0,0-.9487.6836L4.2791,24H3a1,1,0,0,0-1,1v4a1,1,0,0,0,1,1H29a1,1,0,0,0,1-1V25A1,1,0,0,0,29,24ZM6.5,14a9.5,9.5,0,1,1,15.9131,7H9.5864A9.4589,9.4589,0,0,1,6.5,14Zm.2207,9H25.2793l.333,1H6.3872ZM28,28H4V26H28Z"/><path d="M23.5273,13.5269A7.5357,7.5357,0,0,0,16,6a1,1,0,0,0,0,2,5.5334,5.5334,0,0,1,5.5273,5.5269,1,1,0,1,0,2,0Z"/></g></svg>