<?xml version="1.0" ?><svg id="Capa_1" style="enable-background:new 0 0 200 200;" version="1.1" viewBox="0 0 200 200" xml:space="preserve" xmlns="http://www.w3.org/2000/svg" xmlns:xlink="http://www.w3.org/1999/xlink"><g style="fill:white"><path d="M99,162.4c-34.4,0-62.4-28-62.4-62.4s28-62.4,62.4-62.4s62.4,28,62.4,62.4C161.3,134.4,133.4,162.4,99,162.4z M99,44.7   c-30.5,0-55.3,24.8-55.3,55.3s24.8,55.3,55.3,55.3s55.3-24.8,55.3-55.3S129.5,44.7,99,44.7z"/><path d="M99,148.1c-26.5,0-48.1-21.6-48.1-48.1S72.5,51.9,99,51.9s48.1,21.6,48.1,48.1S125.5,148.1,99,148.1z M99,58.9   c-22.6,0-41.1,18.4-41.1,41.1s18.4,41.1,41.1,41.1s41-18.5,41-41.1S121.6,58.9,99,58.9z"/><path d="M99,134.5c-19,0-34.5-15.5-34.5-34.5S80,65.5,99,65.5S133.5,81,133.5,100S118,134.5,99,134.5z M99,72.5   c-15.2,0-27.5,12.3-27.5,27.5s12.3,27.5,27.5,27.5s27.5-12.3,27.5-27.5S114.1,72.5,99,72.5z"/><path d="M99,119.6c-10.8,0-19.6-8.8-19.6-19.6S88.2,80.4,99,80.4s19.6,8.8,19.6,19.6S109.8,119.6,99,119.6z M99,87.4   c-6.9,0-12.6,5.6-12.6,12.6c0,6.9,5.6,12.6,12.6,12.6c6.9,0,12.6-5.6,12.6-12.6C111.5,93.1,105.9,87.4,99,87.4z"/><path d="M99,101.8c-0.7,0-1.3-0.4-1.6-1.1c-0.4-0.9,0-1.9,0.9-2.3l64.4-27.7c0.9-0.4,1.9,0,2.3,0.9c0.4,0.9,0,1.9-0.9,2.3   l-64.4,27.7C99.5,101.8,99.2,101.8,99,101.8z"/><path d="M99,104.8c-2.7,0-4.8-2.2-4.8-4.8s2.2-4.8,4.8-4.8c2.7,0,4.8,2.2,4.8,4.8S101.6,104.8,99,104.8z M99,98.7   c-0.7,0-1.3,0.6-1.3,1.3s0.6,1.3,1.3,1.3c0.7,0,1.3-0.6,1.3-1.3S99.7,98.7,99,98.7z"/><path d="M170,77.1c-4.5,0-8.1-3.6-8.1-8.1s3.6-8.1,8.1-8.1s8.1,3.6,8.1,8.1S174.5,77.1,170,77.1z M170,67.9c-0.6,0-1.1,0.5-1.1,1.1   s0.5,1.1,1.1,1.1s1.1-0.5,1.1-1.1S170.6,67.9,170,67.9z"/></g></svg>